# Blender 5.0.1
# www.blender.org
mtllib Untitled.mtl
o low_arrow
v -0.476694 -0.172524 20.468357
v -0.206643 -0.455427 20.466734
v 1.729921 -0.661863 21.082232
v 3.579886 -0.665247 20.016069
v 2.686675 -0.799175 20.548491
v 0.042309 -0.248162 0.203713
v -0.143681 0.182424 0.198623
v 0.471893 0.125581 0.398757
v 0.279177 0.422291 0.436047
v 0.365542 0.379778 20.468184
v -0.171394 0.471837 0.437217
v -0.345923 0.411280 20.468395
v -0.452849 0.210019 0.476840
v -0.463148 -0.208377 0.439668
v -0.132801 -0.478815 0.444460
v 0.376496 -0.365066 0.441856
v 0.221432 -0.461803 20.467892
v 0.484393 -0.124417 20.466734
v 3.575268 0.621680 20.017807
v -1.720198 0.615066 21.086987
v -0.002538 0.617904 24.069691
v -0.000029 -0.666161 24.072817
v 0.002804 -0.663655 26.214125
v -0.022206 0.750865 25.200783
v -3.584035 -0.671757 20.011259
v -2.653306 0.751841 20.554735
v -0.019900 -0.801920 25.162069
v -1.767263 -0.711069 21.080688
v 2.678187 0.753474 20.557535
v 0.000201 0.615501 26.217279
v -3.574228 0.619435 20.019863
v 1.728301 0.616582 21.085161
vn 0.9770 -0.2133 0.0029
vn 0.9821 0.1884 -0.0029
vn 0.9724 0.2331 0.0022
vn 0.1079 0.9942 0.0017
vn 0.0452 0.9990 0.0034
vn 0.1093 0.9940 0.0016
vn 0.0442 0.9990 0.0034
vn -0.7233 -0.6905 0.0007
vn -0.6346 -0.7728 -0.0014
vn -0.7222 -0.6917 0.0007
vn -0.0149 -0.9999 0.0011
vn 0.2149 -0.9766 -0.0030
vn -0.0111 -0.9999 0.0010
vn 0.7887 -0.6147 0.0031
vn 0.9804 -0.1968 -0.0029
vn -0.5677 0.1225 -0.8141
vn -0.5182 -0.1998 -0.8316
vn -0.6345 0.2535 -0.7302
vn -0.4239 -0.3329 -0.8423
vn -0.3983 -0.5002 -0.7689
vn 0.0062 -0.0014 1.0000
vn 0.0017 -0.0005 1.0000
vn 0.0011 -0.0019 1.0000
vn 0.2449 0.3748 -0.8942
vn 0.0682 0.6385 -0.7666
vn 0.2430 0.4316 -0.8687
vn 0.8385 0.5449 -0.0025
vn 0.8661 0.0005 0.4999
vn 0.8663 0.0022 0.4996
vn 0.8661 0.0007 0.4998
vn 0.8663 0.0024 0.4996
vn -0.8655 -0.0022 -0.5009
vn -0.8651 0.0001 -0.5017
vn -0.8652 -0.0006 -0.5015
vn -0.0002 -0.0029 1.0000
vn 0.0003 -0.0042 1.0000
vn -0.0004 -0.0023 1.0000
vn -0.8657 -0.0023 0.5005
vn -0.8662 0.0025 0.4997
vn -0.8657 -0.0030 0.5006
vn -0.1079 0.9922 -0.0618
vn 0.0005 0.9912 0.1322
vn -0.0089 0.9959 0.0900
vn -0.8656 -0.0029 -0.5007
vn 0.0035 -0.9923 -0.1235
vn 0.0770 -0.9963 -0.0374
vn -0.0079 -0.9962 0.0871
vn 0.0751 0.9965 -0.0354
vn -0.0044 0.9931 -0.1172
vn -0.0699 0.9967 -0.0409
vn -0.0090 -0.9999 -0.0061
vn -0.0313 -0.9993 -0.0180
vn 0.1109 -0.9918 -0.0634
vn 0.0016 -0.9914 0.1307
vn -0.0988 -0.9920 0.0782
vn 0.1082 0.9922 -0.0626
vn -0.1054 0.9921 0.0676
vn 0.1083 0.9920 0.0650
vn -0.6814 0.7319 -0.0037
vn -0.9996 0.0282 -0.0007
vn -0.9997 0.0247 -0.0007
vn -0.9764 0.2161 0.0030
vn -0.9758 0.2186 0.0030
vn -0.6334 -0.7738 -0.0014
vn 0.2180 -0.9760 -0.0030
vn -0.5557 0.4965 -0.6668
vn 0.1689 -0.7702 -0.6151
vn 0.0002 0.0040 -1.0000
vn 0.0004 -0.0003 1.0000
vn -0.0002 -0.0019 1.0000
vn -0.0028 -0.0084 1.0000
vn 0.4208 0.0013 -0.9072
vn 0.3918 0.1110 -0.9133
vn 0.5297 -0.1759 -0.8297
vn 0.8638 -0.0141 -0.5037
vn -0.8662 0.0033 0.4996
vn 0.0005 -0.0048 1.0000
s 1
f 18//1 8//2 10//3
f 11//4 10//5 9//6
f 10//5 11//4 12//7
f 1//8 14//9 2//10
f 2//11 15//12 17//13
f 17//14 16//15 18//1
f 7//16 14//17 13//18
f 6//19 15//20 14//17
f 18//21 10//22 17//23
f 7//24 11//25 9//26
f 8//2 9//27 10//3
f 23//28 4//29 30//30
f 30//30 4//29 19//31
f 21//32 32//33 3//34
f 32//35 28//36 3//37
f 30//38 25//39 23//40
f 31//41 30//42 24//43
f 3//34 22//44 21//32
f 22//45 5//46 27//47
f 29//48 24//43 30//42
f 21//49 26//50 24//43
f 24//43 26//50 31//41
f 28//51 27//47 25//52
f 5//46 4//53 23//54
f 3//55 5//46 22//45
f 22//45 27//47 28//51
f 19//56 26//50 29//48
f 29//48 26//50 32//57
f 20//58 26//50 21//49
f 11//59 13//59 12//59
f 13//60 14//61 1//62
f 12//63 13//60 1//62
f 14//9 15//64 2//10
f 15//12 16//65 17//13
f 16//15 8//2 18//1
f 7//16 13//18 11//66
f 6//67 16//67 15//67
f 31//68 19//68 4//68 25//68
f 12//69 1//70 17//23 10//22
f 2//71 17//23 1//70
f 6//72 8//73 16//74
f 7//16 6//19 14//17
f 8//73 7//24 9//26
f 8//73 6//72 7//24
f 29//48 30//42 19//56
f 28//75 20//75 21//75 22//75
f 25//39 30//38 31//76
f 28//36 32//35 20//77
f 32//57 21//49 29//48
f 28//51 25//52 5//46
f 3//55 28//51 5//46
f 20//58 32//57 26//50
f 5//46 23//54 27//47
f 25//52 4//53 5//46
f 27//47 23//54 25//52
f 19//56 31//41 26//50
f 21//49 24//43 29//48
